<?xml version="1.0" encoding="utf-8"?>
<!-- Generator: Adobe Illustrator 19.0.0, SVG Export Plug-In . SVG Version: 6.00 Build 0)  -->
<svg version="1.1" id="Ebene_1" xmlns="http://www.w3.org/2000/svg" xmlns:xlink="http://www.w3.org/1999/xlink" x="0px" y="0px"
	 viewBox="0 0 169.4 181.1" enable-background="new 0 0 169.4 181.1" xml:space="preserve">
<g>
	<path fill="#FFFFFF" d="M85,181.1c-0.2,0-0.3,0-0.4,0c0,0-0.1,0-0.1,0c-3.9,0-18.7-1.9-44.8-25.7c-11.7-10.7-19.4-33.7-22.7-68.2
		c-2.6-27.1-1.9-54.5-1.6-66.2c0.1-2.3,0.1-4.1,0.1-5.1c0-7.4,9.7-11.5,33.3-14C64.4,0.3,81.1,0,84.3,0c0,0,0.8,0,0.8,0
		c0.1,0,0.3,0,0.4,0c3.9,0.1,20.1,0.4,35.2,2c23.7,2.5,33.3,6.5,33.3,14c0,1,0,2.8,0.1,5.1c0.3,11.7,1,39-1.6,66.2
		c-3.3,34.5-11,57.4-22.7,68.2C103.7,179.3,88.9,181.1,85,181.1L85,181.1z"/>
	<linearGradient id="SVGID_1_" gradientUnits="userSpaceOnUse" x1="23.37" y1="10.7345" x2="146.0456" y2="133.4101">
		<stop  offset="0" style="stop-color:#EA5A9B"/>
		<stop  offset="1" style="stop-color:#4795D1"/>
	</linearGradient>
	<path fill="url(#SVGID_1_)" d="M149.9,15.9c0-10.7-57.5-11.8-64.8-11.8l0,0c0,0-0.3,0-0.7,0c0,0,0,0,0,0v0
		c-7.3,0.1-64.8,1.1-64.8,11.8c0,11.4-5.5,110.5,22.9,136.4c26.5,24.3,40.5,24.7,42.2,24.6c0.5,0,14.6,0.8,42.4-24.6
		C155.4,126.4,149.9,27.4,149.9,15.9z"/>
</g>
<g>
	<polygon fill="#FFFFFF" points="49.9,139.3 57.1,122.1 100.9,122.2 114.1,124.7 123.3,140.7 65.9,141.4 	"/>
	<g>
		<g>
			<polygon fill="#E65F9B" points="7.8,29 13.5,30.6 20.7,31.1 27.6,26 41.3,32.3 45.1,38.7 61.1,34 74,31 87.8,32.5 120.9,40.6 
				141.4,58.6 127.3,75.7 137.1,77 153.2,78.5 150.3,86.1 161.1,97.4 164.8,100.6 164.2,112.5 155.2,123.4 143.4,117.4 142.8,92.1 
				133.9,103 114.7,94.9 95.6,89.9 84.2,87.8 77.5,98.9 61.2,105 46.2,86.2 42.8,68.9 34.9,70.6 27.1,72.7 10.7,67.7 2.5,53.3 
				3.1,42.9 4.4,31.7 			"/>
			<path fill="#FFFFFF" d="M169.4,74.7c-2.8-3-6.6-4.5-10-5.2l0,0c0,0-0.1,0-0.1,0c-3.9-0.8-7.1-0.6-7.1-0.6l0.5-0.5
				c-11.9-0.4-21.3,8-21.3,8c7.3-8.3,18.7-10.3,24.1-10.8l-9.6-11.4c-5.8-12.7-13.1-12.6-13.1-12.6c5.6-7.8-14.6-11.4-14.6-11.4
				l-0.4,4.9l4.2,2.6l-2.3-0.1c-11.7-6.8-46.2-9.3-46.2-9.3L58.9,34l-14.7-0.3C38.5,26.2,27,24.3,27,24.3l-6.3,6.7l-7.6-2.5
				C-2.1,22.5,2.6,48,2.6,48S0,51,0,59.4c0,8.4,14.1,16.7,21.3,16.7s11.1-3.8,11.1-3.8l8.9,3.1c-3.4,3-1.7,15-1.7,15
				s8,15.8,23.3,17.5s23.7-17.5,23.7-17.5c9,7.7,16.5,3.5,16.5,3.5c2.5,3.9,27.5,13,27.4,16.6c-0.1,3.6,5.5,15.5,17.7,15.8
				c12.3,0.3,19-13,19.1-25.3c0.1-12.3-12.9-14.2-12.9-14.2l0.6-3.1C166,79.5,169.4,74.7,169.4,74.7z M125.8,47.5
				c0,0,11,6.2,12.2,11.5c0,0-5.5-2.1-10.5-2.2c0,0-1.3-7.3-3.6-8.3L125.8,47.5z M116.4,40.9c0,0,6.6,10.7,6.3,14.9l-32,0.5
				c0,0-8.3-5.8-7.2-8.8c0,0,6.2-8.8,11.2-8.9S116.4,40.9,116.4,40.9z M96.1,72.6l-5.4,0.2c0,0-1.9-6.8-6.3-9.8
				C84.5,63.1,94.9,68,96.1,72.6z M74,31l14.6,5.4c0,0-8.3,2.5-10.9,5.8c0,0-6,0.2-19.2-6.1C58.6,36.1,67.3,32.5,74,31z M81,50.9
				c-7.4-2.3-14.3-2.7-14.3-2.7c1.7-0.3,1.8-3.6,1.8-3.6C76.5,47,81,50.9,81,50.9z M63,47.7c-5.7-2.8,2-4.5,2-4.5
				C62.3,45.6,63,47.7,63,47.7z M66.6,43.4c0,0,0.3,4-2,4.7C64.6,48.2,66.8,44.2,66.6,43.4z M28.1,27.7c9.2,2.3,12.9,7,11.8,6.6
				c-5.4-1.9-13.5-3.2-13.5-3.2C26.7,30.4,28.1,27.7,28.1,27.7z M8.3,37.9L7.7,53.2l-1.9,0L6,46.1l-1.7,0l0.4-10.5L7.8,29l2,0.1
				l-3.5,7.4L8.3,37.9z M14,57.1l-2.4,0.2l0.5-6.1l-0.6-0.7l-0.8-11.7l3.7-6.5l6.2,1.3c0,0,0.7-0.9,1.1-1.5c0.4-0.6,8.2,2.8,8.8,2.8
				l-15,2.5l0,3.9l4.7,2.3l-1.1,7l-4.3-0.9L14,57.1z M17.6,54.5l1-1.2c0,0,4.7,3.8,9,4.4l-0.9,1.2C26.7,58.9,21.7,58,17.6,54.5z
				 M26.1,60.1l-0.9,1.2c0,0-5-0.8-9.1-4.4l1-1.2C17.1,55.7,21.8,59.5,26.1,60.1z M58,81.4l6.2,3.8l-7.1,8
				C55.7,89.7,56,85.4,58,81.4z M61.4,76.8c3.4-3.3,7.9-4.9,12-4.1l-6.5,9.2L61.4,76.8z M61.3,98.8c-0.5-0.3-1-0.7-1.5-1.2l6.6-7
				l2.5,9.7C66.3,100.6,63.6,100.2,61.3,98.8z M79.5,93c-1.4,2.2-3.2,4-5.2,5.2l-3.4-10.5l10.7,0.6C81.1,89.8,80.4,91.4,79.5,93z
				 M70.8,83.1l5.9-9.2c0.1,0.1,0.2,0.1,0.4,0.2c3.1,2,4.9,5.5,5.1,9.3L70.8,83.1z M97.5,87.4c-0.5-0.3-3.9-2-10-2.7
				c0,0,1.3-8.5-3.1-14.7c-2.3-3.3-8.2-7.4-10-8.6C53.2,54.2,46.4,68,46.4,68l-9-0.8c0,0-3.1,1.8-5.3,2.9c-1.8,0.9,1.3-5,1.8-5.7
				c-0.6,0.8-3.8,7.1-11.9,5.4c-9.3-2-6.4-10.3-6.4-10.3c0.6,0.8,3.3,4.7,7.7,4.6c6.8-0.1,7.3-7.3,7.3-7.3c-5.3-5.4-4.2-8-4.2-8
				c3.8,8.9,8,7.9,8,7.9c0.1-2.9,6.5-6.2,6.5-6.2c-7.4,4.6-5.8,11.1,0.9,11.3c7.4,0.3,5.9-8.5,5.9-8.5c1.9-1.6,9.4-0.7,15.7-0.4
				c-1.5-0.9-2.9-1.6-3.8-1.6c-3.5-0.1-8.1-4.6-8.1-4.6l0.8,0.6c0,0,15.6,1.7,19.8,11.1l0.7,0.6c2,0.3,9.8,2.4,16,14.2
				C95,85.2,97.1,87.1,97.5,87.4c0,0,0.1,0.1,0.1,0.1S97.6,87.4,97.5,87.4z M99.1,69.2c0,0-1.2-4.6-6.8-9.6c0,0,26.3-0.6,38.5,2
				C130.8,61.7,110.7,60.2,99.1,69.2z M117.1,92.9l0.3-1.3l7.5-7l3.1,1.6l-7.8,8.2L117.1,92.9z M132.8,101l-5.3-2.7
				c0,0,7.5-7.5,8.1-8l3.9,1.6C139.5,92,133.9,95.3,132.8,101z M127.4,81.9l5.7-4.5l16.1,6.9l-6.4,4.4L127.4,81.9z M148.3,114
				c-0.1-2.4,0.6-5.2,2.1-7.9c0.1-0.2,0.3-0.5,0.4-0.7l1.6,1.2L148.3,114z M150.9,119.1c-0.9-0.5-1.6-1.4-2-2.5l4.8-6.1l1.4,8.7
				C153.4,119.8,152,119.8,150.9,119.1z M162.1,112.4c-1.2,2.3-2.8,4.1-4.4,5.3l-1.9-9.2l7.9-0.1
				C163.3,109.8,162.8,111.1,162.1,112.4z M164.1,105.4l-7.1,0.1l4.8-6C163.4,100.6,164.2,102.7,164.1,105.4z M159.1,98.9l-4.6,5.4
				l-2-1.4C154.6,100.5,157,99.1,159.1,98.9z"/>
		</g>
		<g display="none">
			<g display="inline">
				<g>
					<path fill="#FFFFFF" d="M58.8,129.5c-0.2,0-0.4,0-0.5,0c-0.2,0.1-0.4,0.1-0.5,0.1c-0.6,0.1-1.2,0.1-1.7,0.2
						c-1.5,0.2-2.8-0.9-2.8-2.4c0-1.8,0-3.5,0-5.3c0-1.5,1.2-3,2.8-3.1c0.8-0.1,1.5-0.2,2.3-0.3c0.4-0.1,0.9-0.1,1.3,0
						c0.6,0.1,1.2,0.2,1.7,0.5c0.6,0.3,1.1,0.8,1.4,1.4c0.4,0.6,0.5,1.3,0.5,2.1c0,0.6-0.1,1.1-0.3,1.6c0.1,0.1,0.2,0.3,0.3,0.4
						c0.5,0.8,0.6,1.9,0.1,2.8c-0.5,0.9-1.4,1.6-2.4,1.7C60.2,129.3,59.5,129.4,58.8,129.5z"/>
					<path fill="#FFFFFF" d="M56,121.7c0.8-0.1,1.5-0.2,2.3-0.3c0.3,0,0.5,0,0.8,0c0.3,0,0.5,0.1,0.7,0.2c0.2,0.1,0.4,0.3,0.5,0.5
						c0.1,0.2,0.2,0.5,0.2,0.8c0,0.3-0.1,0.6-0.2,0.9c-0.2,0.3-0.4,0.5-0.7,0.6c0.4,0.7,0.9,1.3,1.3,2c-0.7,0.1-1.4,0.1-2.1,0.2
						c-0.3-0.6-0.7-1.2-1-1.8c0,0,0,0-0.1,0c0,0.6,0,1.3,0,1.9c-0.6,0.1-1.2,0.1-1.7,0.2C56,125.3,56,123.5,56,121.7z M57.7,123.8
						c0.1,0,0.2,0,0.3,0c0.1,0,0.1,0,0.2,0c0.1,0,0.1,0,0.2-0.1c0.1,0,0.1-0.1,0.2-0.2c0-0.1,0.1-0.1,0.1-0.2c0-0.1,0-0.2-0.1-0.2
						c0-0.1-0.1-0.1-0.1-0.1c-0.1,0-0.1,0-0.2,0c-0.1,0-0.1,0-0.2,0c-0.1,0-0.3,0-0.4,0.1C57.7,123.2,57.7,123.5,57.7,123.8z"/>
					<path fill="#FFFFFF" d="M64.1,129.1c-0.8,0.1-1.5,0-2.2-0.2c-0.7-0.2-1.3-0.5-1.9-1c-0.5-0.4-1-1-1.3-1.7
						c-0.3-0.7-0.5-1.4-0.5-2.2c0-0.8,0.2-1.6,0.5-2.3c0.3-0.7,0.7-1.4,1.3-2c0.5-0.5,1.2-1,1.9-1.3c0.7-0.3,1.4-0.5,2.1-0.6
						c0.7-0.1,1.5,0,2.1,0.2c0.7,0.2,1.3,0.5,1.9,1c0.6,0.5,1,1,1.3,1.7c0.3,0.7,0.5,1.4,0.5,2.2c0,0.8-0.2,1.6-0.5,2.3
						c-0.3,0.7-0.7,1.4-1.3,1.9c-0.5,0.5-1.2,1-1.9,1.3C65.5,128.8,64.8,129,64.1,129.1z"/>
					<path fill="#FFFFFF" d="M61.1,123.8c0-0.4,0.1-0.8,0.2-1.2c0.1-0.4,0.4-0.7,0.6-0.9c0.3-0.3,0.6-0.5,0.9-0.6
						c0.4-0.2,0.8-0.3,1.2-0.3c0.4,0,0.8,0,1.2,0.1c0.4,0.1,0.7,0.3,0.9,0.5c0.3,0.2,0.5,0.5,0.6,0.8c0.2,0.3,0.2,0.7,0.2,1.1
						c0,0.4-0.1,0.8-0.2,1.2c-0.2,0.4-0.4,0.7-0.6,0.9c-0.3,0.3-0.6,0.5-0.9,0.7c-0.4,0.2-0.8,0.3-1.2,0.3c-0.4,0-0.8,0-1.2-0.1
						c-0.4-0.1-0.7-0.3-0.9-0.5c-0.3-0.2-0.5-0.5-0.6-0.8C61.2,124.6,61.1,124.2,61.1,123.8z M63,123.6c0,0.2,0,0.3,0.1,0.5
						c0.1,0.1,0.1,0.3,0.2,0.4c0.1,0.1,0.2,0.2,0.3,0.2c0.1,0,0.3,0.1,0.4,0c0.2,0,0.3-0.1,0.4-0.1c0.1-0.1,0.2-0.2,0.3-0.3
						c0.1-0.1,0.2-0.2,0.2-0.4c0.1-0.1,0.1-0.3,0.1-0.5c0-0.2,0-0.3-0.1-0.5c-0.1-0.1-0.1-0.2-0.2-0.3c-0.1-0.1-0.2-0.2-0.3-0.2
						c-0.1,0-0.3-0.1-0.4,0c-0.2,0-0.3,0.1-0.4,0.1c-0.1,0.1-0.2,0.2-0.3,0.3c-0.1,0.1-0.2,0.2-0.2,0.4C63,123.2,63,123.4,63,123.6z
						"/>
					<path fill="#FFFFFF" d="M70.4,128.6c-0.7,0-1.5,0-2.1-0.2c-0.7-0.2-1.3-0.6-1.9-1c-0.5-0.5-0.9-1-1.2-1.7
						c-0.3-0.7-0.5-1.4-0.5-2.2c0-0.8,0.2-1.6,0.5-2.3c0.3-0.7,0.7-1.4,1.3-1.9c0.5-0.5,1.2-1,1.9-1.3c0.7-0.3,1.4-0.5,2.1-0.5
						c0.7,0,1.4,0,2.1,0.2c0.7,0.2,1.3,0.6,1.9,1c1.1,0.9,1.2,2.6,0.3,3.8c-0.1,0.1-0.1,0.2-0.2,0.3c0.1,0.1,0.1,0.2,0.2,0.2
						c0.9,1.1,0.9,2.7-0.2,3.8c-0.5,0.5-1.1,1-1.8,1.3C72,128.3,71.2,128.5,70.4,128.6z"/>
					<path fill="#FFFFFF" d="M67.5,123.2c0-0.4,0.1-0.8,0.2-1.2c0.2-0.4,0.4-0.7,0.6-0.9c0.3-0.3,0.6-0.5,0.9-0.6
						c0.4-0.2,0.7-0.2,1.1-0.3c0.4,0,0.8,0,1.2,0.1c0.4,0.1,0.7,0.3,0.9,0.5c-0.4,0.5-0.7,0.9-1.1,1.4c-0.1-0.1-0.2-0.2-0.4-0.3
						c-0.2-0.1-0.3-0.1-0.5-0.1c-0.2,0-0.3,0-0.4,0.1c-0.1,0.1-0.2,0.1-0.3,0.3c-0.1,0.1-0.2,0.2-0.2,0.4c-0.1,0.1-0.1,0.3-0.1,0.5
						c0,0.2,0,0.3,0.1,0.5c0.1,0.1,0.1,0.2,0.2,0.3c0.1,0.1,0.2,0.2,0.3,0.2c0.1,0,0.3,0.1,0.4,0.1c0.2,0,0.4-0.1,0.5-0.2
						c0.1-0.1,0.3-0.2,0.4-0.3c0.4,0.4,0.7,0.8,1.1,1.2c-0.2,0.3-0.5,0.5-0.9,0.6c-0.4,0.2-0.8,0.3-1.2,0.3c-0.4,0-0.8,0-1.1-0.1
						c-0.4-0.1-0.7-0.3-0.9-0.5c-0.3-0.2-0.5-0.5-0.6-0.8C67.6,124,67.5,123.6,67.5,123.2z"/>
					<path fill="#FFFFFF" d="M76.2,128.1c-0.2,0-0.5,0-0.7-0.1c-0.2,0.1-0.5,0.1-0.7,0.1c-0.6,0-1.2,0.1-1.7,0.1
						c-1.5,0.1-2.8-1.1-2.8-2.6c0-1.8,0-3.5,0-5.3c0-1.5,1.3-2.9,2.8-3c0.6,0,1.2-0.1,1.7-0.1c0.2,0,0.5,0,0.7,0.1
						c0.2-0.1,0.5-0.1,0.7-0.1c0.7,0,1.4-0.1,2.1-0.1c1.1,0,2.1,0.6,2.5,1.5c0.5,1,0.3,2.1-0.4,3c-0.2,0.3-0.4,0.5-0.6,0.8
						c0.3,0.4,0.6,0.7,0.8,1.1c0.6,0.8,0.7,1.9,0.2,2.9c-0.5,0.9-1.4,1.6-2.5,1.6C77.7,128,76.9,128.1,76.2,128.1z"/>
					<path fill="#FFFFFF" d="M74.8,123.3C74.8,123.3,74.8,123.3,74.8,123.3c0,0.7,0,1.4,0,2.1c-0.6,0-1.2,0.1-1.7,0.1
						c0-1.8,0-3.5,0-5.3c0.6,0,1.2-0.1,1.7-0.1c0,0.6,0,1.3,0,1.9c0,0,0,0,0,0c0.5-0.7,0.9-1.3,1.4-2c0.7,0,1.4-0.1,2.1-0.1
						c-0.7,0.8-1.3,1.7-2,2.5c0.7,0.9,1.4,1.9,2.1,2.8c-0.7,0-1.5,0.1-2.2,0.1C75.7,124.6,75.2,124,74.8,123.3z"/>
					<path fill="#FFFFFF" d="M78.8,128c-1.5,0-2.8-1.1-2.8-2.7c0-1.8,0-3.5,0-5.3c0-1.5,1.3-2.8,2.8-2.9c1.2,0,2.4-0.1,3.7-0.1
						c1.6,0,2.8,1.2,2.8,2.7c0,0.5,0,1,0,1.5c0,0.3,0,0.6-0.1,0.8c0,0.1,0,0.2,0,0.4c0.2,0.3,0.2,0.7,0.2,1.1c0,0.5,0,1,0,1.5
						c0,1.5-1.3,2.8-2.8,2.8C81.3,127.9,80,128,78.8,128z"/>
					<path fill="#FFFFFF" d="M78.8,119.9c1.2,0,2.4-0.1,3.7-0.1c0,0.5,0,1,0,1.5c-0.7,0-1.3,0-2,0c0,0.2,0,0.3,0,0.5
						c0.6,0,1.2,0,1.9,0c0,0.5,0,0.9,0,1.4c-0.6,0-1.2,0-1.9,0c0,0.2,0,0.3,0,0.5c0.7,0,1.4,0,2.1,0c0,0.5,0,1,0,1.5
						c-1.3,0-2.5,0.1-3.8,0.1C78.8,123.5,78.8,121.7,78.8,119.9z"/>
					<path fill="#FFFFFF" d="M84.2,127.9c-1.6,0-2.8-1.2-2.8-2.7c0-0.5,0-1,0-1.4c-0.8-0.5-1.3-1.3-1.3-2.3c0-0.5,0-1,0-1.5
						c0-1.5,1.3-2.8,2.8-2.8c1.5,0,2.9,0,4.4,0c1.5,0,2.8,1.3,2.8,2.8c0,0.5,0,1,0,1.5c0,1-0.5,1.9-1.3,2.3c0,0.5,0,1,0,1.4
						c0,1.5-1.3,2.8-2.8,2.8C85.4,127.9,84.8,127.9,84.2,127.9z"/>
					<path fill="#FFFFFF" d="M86,125.1c-0.6,0-1.2,0-1.8,0c0-1.3,0-2.5,0-3.8c-0.4,0-0.9,0-1.3,0c0-0.5,0-1,0-1.5c1.5,0,2.9,0,4.4,0
						c0,0.5,0,1,0,1.5c-0.4,0-0.9,0-1.3,0C86,122.6,86,123.8,86,125.1z"/>
					<path fill="#FFFFFF" d="M89.5,127.9c-1.6,0-2.8-1.3-2.8-2.8c0-1.8,0-3.5,0-5.3c0-1.5,1.3-2.8,2.8-2.8c0.6,0,1.2,0,1.8,0
						c1.5,0,2.8,1.3,2.8,2.8c0,0.4,0,0.8,0,1.2c1,0.4,1.8,1.5,1.8,2.6c0,0.5,0,1,0,1.5c0,1.5-1.3,2.7-2.8,2.7
						C91.9,127.9,90.7,127.9,89.5,127.9z"/>
					<path fill="#FFFFFF" d="M89.5,119.8c0.6,0,1.2,0,1.8,0c0,1.3,0,2.5,0,3.8c0.6,0,1.2,0,1.8,0c0,0.5,0,1,0,1.5
						c-1.2,0-2.4-0.1-3.6-0.1C89.5,123.3,89.5,121.6,89.5,119.8z"/>
					<path fill="#FFFFFF" d="M93.7,128c-1.5,0-2.8-1.3-2.8-2.8c0-1.8,0-3.5,0-5.3c0-1.5,1.3-2.8,2.8-2.7c1.2,0,2.4,0.1,3.7,0.1
						c1.5,0.1,2.8,1.4,2.8,2.9c0,0.5,0,1,0,1.5c0,0.3,0,0.6-0.1,0.8c0,0.1,0,0.2,0,0.4c0.2,0.4,0.2,0.8,0.2,1.2c0,0.5,0,1,0,1.5
						c0,1.5-1.3,2.7-2.8,2.6C96.2,128.1,94.9,128,93.7,128z"/>
					<path fill="#FFFFFF" d="M93.7,119.9c1.2,0,2.4,0.1,3.7,0.1c0,0.5,0,1,0,1.5c-0.7,0-1.3-0.1-2-0.1c0,0.2,0,0.3,0,0.5
						c0.6,0,1.2,0,1.9,0.1c0,0.5,0,0.9,0,1.4c-0.6,0-1.2-0.1-1.9-0.1c0,0.2,0,0.3,0,0.5c0.7,0,1.4,0.1,2.1,0.1c0,0.5,0,1,0,1.5
						c-1.3-0.1-2.5-0.1-3.8-0.1C93.7,123.4,93.7,121.7,93.7,119.9z"/>
					<path fill="#FFFFFF" d="M101.7,128.3c-0.4,0-0.8-0.1-1.1-0.3c-0.3,0.1-0.7,0.2-1.1,0.2c-0.6,0-1.3-0.1-1.9-0.1
						c-0.9,0-1.8-0.5-2.3-1.3c-0.5-0.8-0.6-1.7-0.3-2.6c0.7-1.7,1.4-3.5,2.1-5.2c0.4-1,1.5-1.7,2.6-1.6c0.6,0,1.3,0.1,1.9,0.1
						c1.2,0.1,2.2,0.8,2.6,1.9c0.7,1.8,1.4,3.6,2.1,5.4c0.3,0.9,0.2,1.8-0.3,2.6c-0.5,0.7-1.4,1.1-2.3,1
						C103,128.4,102.4,128.4,101.7,128.3z"/>
					<path fill="#FFFFFF" d="M99.7,120.2c0.6,0,1.3,0.1,1.9,0.1c0.7,1.8,1.4,3.6,2.1,5.4c-0.6,0-1.3-0.1-1.9-0.1
						c-0.1-0.3-0.2-0.5-0.3-0.8c-0.6,0-1.1-0.1-1.7-0.1c-0.1,0.3-0.2,0.5-0.3,0.8c-0.6,0-1.3-0.1-1.9-0.1
						C98.3,123.6,99,121.9,99.7,120.2z M100.6,122.1c-0.1,0.4-0.3,0.9-0.4,1.3c0.3,0,0.6,0,0.9,0
						C100.9,122.9,100.8,122.5,100.6,122.1z"/>
					<path fill="#FFFFFF" d="M106.6,128.8c-0.7-0.1-1.5-0.2-2.1-0.5c-0.7-0.3-1.3-0.7-1.9-1.3c-0.5-0.5-1-1.2-1.3-1.9
						c-0.3-0.7-0.5-1.5-0.5-2.3c0-0.8,0.2-1.6,0.5-2.2c0.3-0.7,0.7-1.2,1.3-1.7c0.5-0.5,1.2-0.8,1.8-1c0.7-0.2,1.4-0.3,2.1-0.2
						c0.7,0.1,1.5,0.2,2.1,0.6c0.8,0.3,1.4,0.8,1.9,1.4c0.7,0.7,0.9,1.7,0.8,2.6c0.1,0.3,0.1,0.6,0.1,0.9c0,1,0,1.9,0,2.9
						c0,1-0.5,1.8-1.4,2.2c-0.3,0.1-0.6,0.2-0.9,0.3c-0.3,0.1-0.6,0.1-0.9,0.2c-0.3,0-0.6,0.1-0.9,0.1
						C107.3,128.9,107,128.9,106.6,128.8z"/>
					<path fill="#FFFFFF" d="M106.6,126c-0.4,0-0.8-0.1-1.2-0.3c-0.4-0.2-0.7-0.4-0.9-0.6c-0.3-0.3-0.5-0.6-0.6-0.9
						c-0.2-0.4-0.2-0.7-0.2-1.2c0-0.4,0.1-0.8,0.2-1.1c0.2-0.3,0.4-0.6,0.6-0.8c0.3-0.2,0.6-0.4,0.9-0.5c0.4-0.1,0.7-0.1,1.1-0.1
						c0.4,0,0.8,0.1,1.2,0.3c0.4,0.2,0.7,0.4,0.9,0.6c-0.3,0.4-0.7,0.8-1,1.2c-0.1-0.1-0.2-0.3-0.4-0.3c-0.2-0.1-0.3-0.1-0.6-0.2
						c-0.1,0-0.3,0-0.4,0.1c-0.1,0-0.3,0.1-0.4,0.2c-0.1,0.1-0.2,0.2-0.3,0.4c-0.1,0.1-0.1,0.3-0.1,0.5c0,0.4,0.1,0.7,0.3,0.9
						c0.2,0.2,0.5,0.4,0.9,0.4c0.1,0,0.2,0,0.2,0c0.1,0,0.1,0,0.2,0c0-0.1,0-0.3,0-0.4c-0.3,0-0.6,0-0.9-0.1c0-0.5,0-0.9,0-1.4
						c0.8,0.1,1.6,0.1,2.4,0.2c0,1,0,1.9,0,2.9c-0.1,0.1-0.3,0.1-0.4,0.2c-0.2,0-0.3,0.1-0.5,0.1c-0.2,0-0.4,0-0.6,0.1
						C107,126.1,106.8,126.1,106.6,126z"/>
					<path fill="#FFFFFF" d="M112.1,129.4c-0.7-0.1-1.4-0.3-2.1-0.6c-0.7-0.3-1.3-0.7-1.7-1.2c-0.5-0.5-0.9-1.1-1.1-1.8
						c-0.2-0.6-0.3-1.2-0.3-1.9c0-1.1,0-2.1,0-3.2c0-1.5,1.3-2.7,2.8-2.5c0.6,0.1,1.2,0.1,1.8,0.2c0.2,0,0.5,0.1,0.7,0.2
						c0.2,0,0.5,0,0.7,0c0.6,0.1,1.2,0.1,1.8,0.2c1.5,0.2,2.8,1.6,2.8,3.1c0,1.1,0,2.1,0,3.2c0,0.7-0.1,1.3-0.4,1.9
						c-0.3,0.6-0.6,1.1-1.1,1.6c-0.5,0.4-1.1,0.7-1.7,0.9C113.5,129.4,112.8,129.4,112.1,129.4z"/>
					<path fill="#FFFFFF" d="M112.1,126.6c-0.4,0-0.8-0.1-1.1-0.3c-0.3-0.1-0.6-0.3-0.8-0.5c-0.2-0.2-0.4-0.5-0.5-0.7
						c-0.1-0.3-0.2-0.6-0.2-0.9c0-1.1,0-2.1,0-3.2c0.6,0.1,1.2,0.1,1.8,0.2c0,1,0,2,0,3c0,0.3,0.1,0.5,0.2,0.6
						c0.1,0.2,0.3,0.2,0.5,0.3c0.2,0,0.4,0,0.5-0.2c0.1-0.1,0.2-0.3,0.2-0.6c0-1,0-2,0-3c0.6,0.1,1.2,0.1,1.8,0.2c0,1.1,0,2.1,0,3.2
						c0,0.3-0.1,0.6-0.2,0.9c-0.1,0.3-0.3,0.5-0.5,0.7c-0.2,0.2-0.5,0.3-0.8,0.4C112.8,126.6,112.5,126.6,112.1,126.6z"/>
					<path fill="#FFFFFF" d="M115.5,129.6c-1.5-0.2-2.8-1.6-2.8-3.1c0-1.8,0-3.5,0-5.3c0-1.5,1.3-2.6,2.8-2.5
						c1.2,0.1,2.4,0.3,3.7,0.5c1.5,0.2,2.8,1.6,2.8,3.2c0,0.5,0,1,0,1.5c0,0.3,0,0.5-0.1,0.8c0,0.1,0,0.3,0,0.4
						c0.2,0.4,0.2,0.8,0.2,1.2c0,0.5,0,1,0,1.5c0,1.5-1.2,2.6-2.8,2.4C118,129.9,116.7,129.7,115.5,129.6z"/>
					<path fill="#FFFFFF" d="M115.5,121.5c1.2,0.1,2.4,0.3,3.7,0.5c0,0.5,0,1,0,1.5c-0.7-0.1-1.3-0.2-2-0.3c0,0.2,0,0.3,0,0.5
						c0.6,0.1,1.2,0.2,1.9,0.2c0,0.5,0,0.9,0,1.4c-0.6-0.1-1.2-0.2-1.9-0.2c0,0.2,0,0.3,0,0.5c0.7,0.1,1.4,0.2,2.1,0.3
						c0,0.5,0,1,0,1.5c-1.3-0.2-2.5-0.3-3.8-0.5C115.5,125,115.5,123.3,115.5,121.5z"/>
				</g>
				<g>
					<path fill="#FFFFFF" d="M29.5,158c-0.9,0.2-1.9,0.4-2.7,0.4c-0.9,0.1-1.8,0-2.6,0c-0.8-0.1-1.6-0.3-2.3-0.5
						c-0.8-0.2-1.5-0.5-2.1-0.9c-0.5-0.3-0.9-0.9-0.9-1.7c0-0.7,0.2-1.5,0.7-2.2c0.9-1.3,1.9-2.6,2.8-3.9c0,0,0,0-0.1,0
						c-0.7-0.5-1.3-1.2-1.7-2c-0.4-0.8-0.6-1.9-0.6-3.1c0-1.7,0.4-3.3,1.1-4.8c0.7-1.4,1.6-2.6,2.6-3.7c1-1,2.2-1.8,3.5-2.5
						c1.2-0.6,2.3-1,3.5-1.3c1.6-0.4,3.2-0.4,4.8-0.2c1.6,0.3,3.1,0.9,4.4,1.8c0.5,0.4,0.9,1.1,0.9,1.8c0,0.7-0.3,1.5-0.8,2.2
						c-0.8,1-1.7,2.1-2.5,3.1c0.7,0.4,1.3,1,1.8,1.7c0.7,1,1,2.2,1,3.8c0,1.6-0.3,3.1-1,4.5c-0.6,1.3-1.5,2.5-2.6,3.6
						c-1,1-2.1,1.8-3.4,2.5C31.9,157.2,30.7,157.7,29.5,158z"/>
					<path fill="#FFFFFF" d="M29.5,155.2c-0.8,0.2-1.5,0.3-2.3,0.4c-0.7,0.1-1.5,0-2.1,0c-0.7-0.1-1.3-0.2-1.9-0.4
						c-0.6-0.2-1.1-0.4-1.6-0.7c1.3-1.8,2.6-3.6,3.9-5.3c0.4,0.4,1,0.7,1.8,0.8c0.7,0.2,1.5,0.2,2.3,0c0.4-0.1,0.7-0.2,1-0.4
						c0.3-0.2,0.4-0.5,0.4-0.8c0-0.2,0-0.3-0.1-0.4c-0.1-0.1-0.3-0.2-0.5-0.3c-0.3-0.1-0.6-0.1-1-0.2c-0.4-0.1-1-0.1-1.6-0.2
						c-0.6-0.1-1.3-0.2-1.8-0.3c-0.6-0.1-1.1-0.4-1.6-0.7c-0.5-0.3-0.8-0.7-1.1-1.3c-0.3-0.5-0.4-1.2-0.4-2.1c0-1.2,0.2-2.3,0.7-3.2
						c0.5-1,1.1-1.8,1.9-2.5c0.8-0.7,1.6-1.3,2.6-1.8c0.9-0.5,1.9-0.8,2.8-1c1.3-0.3,2.5-0.3,3.8-0.1c1.3,0.2,2.4,0.7,3.4,1.4
						c-1.3,1.6-2.7,3.3-4,4.9c-0.4-0.4-1-0.7-1.6-0.9c-0.6-0.1-1.2-0.1-1.7,0c-0.5,0.1-0.8,0.3-1.1,0.5c-0.3,0.2-0.4,0.5-0.4,0.8
						c0,0.3,0.1,0.5,0.4,0.5c0.3,0.1,0.8,0.1,1.4,0.2c0.7,0.1,1.4,0.1,2.1,0.3c0.8,0.1,1.4,0.3,2.1,0.7c0.6,0.3,1.2,0.8,1.6,1.4
						c0.4,0.6,0.6,1.4,0.6,2.4c0,1.2-0.2,2.2-0.7,3.2c-0.5,1-1.1,1.8-1.8,2.5c-0.7,0.7-1.6,1.3-2.5,1.8
						C31.4,154.6,30.4,155,29.5,155.2z"/>
					<path fill="#FFFFFF" d="M42.6,154.7c-1.5,0.3-2.8-0.7-2.8-2.3c0-3.7,0-7.3,0-11c-0.6,0.1-1.3,0.3-1.9,0.4
						c-1.5,0.3-2.8-0.7-2.8-2.2c0-1.8,0-3.6,0-5.5c0-1.5,1.2-3,2.8-3.4c5.3-1.1,10.6-2,15.9-2.7c1.5-0.2,2.8,0.9,2.8,2.4
						c0,1.8,0,3.6,0,5.5c0,1.5-1.2,2.9-2.8,3.1c-0.6,0.1-1.3,0.2-1.9,0.3c0,3.7,0,7.3,0,11c0,1.5-1.2,3-2.8,3.2
						C46.9,153.9,44.8,154.3,42.6,154.7z"/>
					<path fill="#FFFFFF" d="M49.1,150.8c-2.2,0.3-4.3,0.7-6.4,1.1c0-4.6,0-9.2,0-13.7c-1.6,0.3-3.1,0.6-4.7,0.9c0-1.8,0-3.6,0-5.5
						c5.3-1.1,10.6-2,15.9-2.7c0,1.8,0,3.6,0,5.5c-1.6,0.2-3.2,0.4-4.7,0.7C49.1,141.6,49.1,146.2,49.1,150.8z"/>
					<path fill="#FFFFFF" d="M66.9,151.5c-1.2,0.1-2.2-0.5-2.6-1.6c-0.1-0.3-0.2-0.6-0.3-0.9c-0.7,0.1-1.4,0.1-2.2,0.2
						c-0.1,0.3-0.2,0.6-0.3,1c-0.4,1.2-1.4,2-2.6,2.2c-2.3,0.3-4.6,0.6-6.9,0.9c-0.9,0.1-1.8-0.2-2.3-0.9c-0.5-0.7-0.6-1.6-0.3-2.5
						c2.5-6.8,5.1-13.5,7.6-20.3c0.4-1.1,1.5-1.9,2.6-2.1c2.3-0.3,4.6-0.5,6.9-0.7c1.2-0.1,2.2,0.5,2.6,1.6c2.5,6.2,5,12.5,7.6,18.8
						c0.3,0.8,0.2,1.8-0.3,2.6c-0.5,0.8-1.4,1.3-2.3,1.3C71.6,151.1,69.2,151.3,66.9,151.5z"/>
					<path fill="#FFFFFF" d="M59.5,130.2c2.3-0.3,4.6-0.5,6.9-0.7c2.5,6.2,5,12.4,7.5,18.7c-2.4,0.1-4.7,0.3-7.1,0.5
						c-0.3-0.9-0.7-1.8-1-2.7c-2,0.2-4.1,0.4-6.1,0.6c-0.3,1-0.6,2-1,2.9c-2.3,0.3-4.6,0.6-6.9,0.9C54.4,143.6,57,136.9,59.5,130.2z
						 M62.9,136.5c-0.5,1.6-1.1,3.3-1.6,4.9c1-0.1,2.1-0.2,3.1-0.3C63.9,139.6,63.4,138.1,62.9,136.5z"/>
					<path fill="#FFFFFF" d="M75.3,150.9c-1.5,0.1-2.8-1.1-2.8-2.6c0-6.4,0-12.8,0-19.2c0-1.5,1.3-2.9,2.8-2.9
						c2.4-0.1,4.8-0.2,7.2-0.2c1.7,0,3.4,0.1,5,0.5c1.8,0.4,3.3,1.1,4.7,2c1.4,1,2.6,2.4,3.4,4c0.8,1.6,1.3,3.6,1.3,5.9
						c0,2.1-0.4,4-1.2,5.5c-0.8,1.6-1.9,2.9-3.2,3.9c-1.3,1-2.8,1.7-4.5,2.2c-1.6,0.4-3.2,0.7-4.9,0.7
						C80.5,150.7,77.9,150.8,75.3,150.9z M84.4,139.3c0.1,0,0.1-0.1,0.2-0.1c0,0,0.2-0.3,0.2-1.1c0-0.6-0.2-0.7-0.2-0.8
						c0,0-0.1-0.1-0.1-0.1C84.4,137.9,84.4,138.6,84.4,139.3z"/>
					<path fill="#FFFFFF" d="M75.3,148.1c0-6.4,0-12.8,0-19.2c2.4-0.1,4.8-0.2,7.2-0.2c1.5,0,3,0.1,4.4,0.4c1.4,0.3,2.6,0.8,3.7,1.6
						c1.1,0.8,1.9,1.7,2.6,3c0.6,1.2,1,2.8,1,4.6c0,1.7-0.3,3.1-0.9,4.3c-0.6,1.2-1.4,2.2-2.5,3c-1,0.8-2.2,1.3-3.5,1.7
						c-1.3,0.4-2.7,0.6-4.2,0.6C80.5,147.9,77.9,148,75.3,148.1z M81.6,134.2c0,2.7,0,5.4,0,8.2c0.4,0,0.8,0,1.2,0
						c1.5,0,2.7-0.4,3.5-1c0.8-0.7,1.2-1.7,1.2-3.2c0-1.2-0.4-2.2-1.2-2.9c-0.8-0.7-1.9-1-3.3-1C82.6,134.2,82.1,134.2,81.6,134.2z"
						/>
					<path fill="#FFFFFF" d="M96.9,150.9c-1.5-0.1-2.8-1.3-2.8-2.9c0-6.4,0-12.8,0-19.2c0-1.5,1.3-2.7,2.8-2.7
						c2.2,0.1,4.4,0.2,6.6,0.4c1.5,0.1,2.8,1.5,2.8,3c0,6.4,0,12.8,0,19.2c0,1.5-1.3,2.7-2.8,2.6C101.3,151.1,99.1,151,96.9,150.9z"
						/>
					<path fill="#FFFFFF" d="M96.9,128.9c2.2,0.1,4.4,0.2,6.6,0.4c0,6.4,0,12.8,0,19.2c-2.2-0.2-4.4-0.3-6.6-0.4
						C96.9,141.7,96.9,135.3,96.9,128.9z"/>
					<path fill="#FFFFFF" d="M115.8,152.9c-1.8-0.2-3.5-0.7-4.9-1.3c-1.5-0.7-2.8-1.6-3.8-2.7c-1-1.1-1.8-2.4-2.3-3.8
						c-0.5-1.3-0.7-2.7-0.7-4.2c0-3.9,0-7.8,0-11.7c0-1.5,1.3-2.7,2.8-2.6c2.2,0.2,4.3,0.4,6.5,0.6c1.1,0.1,2.1,0.9,2.6,2
						c0.4-0.9,1.4-1.5,2.6-1.3c2.2,0.3,4.3,0.6,6.4,0.9c1.5,0.2,2.8,1.7,2.8,3.2c0,3.9,0,7.8,0,11.7c0,1.5-0.3,2.9-0.8,4.1
						c-0.5,1.3-1.3,2.3-2.4,3.2c-1,0.8-2.3,1.4-3.8,1.7C119.2,153.1,117.6,153.2,115.8,152.9z"/>
					<path fill="#FFFFFF" d="M115.8,150.2c-1.5-0.2-2.8-0.5-3.9-1.1c-1.1-0.5-2.1-1.2-2.8-2c-0.7-0.8-1.3-1.7-1.7-2.7
						c-0.4-1-0.5-2.1-0.5-3.2c0-3.9,0-7.8,0-11.7c2.2,0.2,4.3,0.4,6.5,0.6c0,3.7,0,7.3,0,11c0,0.9,0.2,1.7,0.7,2.2
						c0.4,0.6,1.1,0.9,1.9,1c0.8,0.1,1.4-0.1,1.9-0.5c0.4-0.5,0.7-1.1,0.7-2.1c0-3.7,0-7.3,0-11c2.1,0.3,4.3,0.6,6.4,0.9
						c0,3.9,0,7.8,0,11.7c0,1.1-0.2,2.2-0.6,3.1c-0.4,0.9-1,1.7-1.7,2.3c-0.8,0.6-1.7,1-2.8,1.3
						C118.6,150.3,117.3,150.3,115.8,150.2z"/>
					<path fill="#FFFFFF" d="M145.5,157.9c-0.6-0.2-1.3-0.5-1.8-1.1c-0.5,0.3-1.1,0.4-1.8,0.2c-1.5-0.4-3-0.7-4.5-1
						c-0.6-0.1-1.2-0.5-1.7-0.9c-0.5,0.3-1.1,0.3-1.7,0.2c-2-0.4-4-0.8-6-1.1c-1.5-0.3-2.8-1.7-2.8-3.2c0-6.4,0-12.8,0-19.2
						c0-1.5,1.2-2.6,2.8-2.3c2.8,0.5,5.6,1,8.4,1.6c1.2,0.2,2.2,1.2,2.6,2.5c0.2,0.8,0.5,1.5,0.7,2.3c0.2-0.6,0.4-1.3,0.6-1.9
						c0.3-1.1,1.4-1.7,2.6-1.4c2.9,0.7,5.7,1.4,8.6,2.2c1.5,0.4,2.7,2,2.7,3.6c0,6.4,0,12.8,0,19.2c0,1.5-1.2,2.4-2.7,2
						C149.7,159,147.6,158.4,145.5,157.9z"/>
					<path fill="#FFFFFF" d="M133.9,141.7c0.1,3.6,0.2,7.3,0.3,10.9c-2-0.4-4-0.8-6-1.1c0-6.4,0-12.8,0-19.2c2.8,0.5,5.6,1,8.4,1.6
						c1.2,3.7,2.3,7.4,3.4,11.1c0,0,0.1,0,0.1,0c1-3.2,2-6.4,3-9.6c2.9,0.7,5.7,1.4,8.6,2.2c0,6.4,0,12.8,0,19.2
						c-2.1-0.6-4.1-1.1-6.2-1.6c0.1-3.6,0.1-7.2,0.2-10.7c-0.1,0-0.1,0-0.2-0.1c-1.2,3.3-2.4,6.6-3.5,10c-1.5-0.4-3-0.7-4.5-1
						c-1.2-3.9-2.3-7.7-3.5-11.6C134,141.7,133.9,141.7,133.9,141.7z"/>
				</g>
			</g>
			<g display="inline">
				<g>
					<path fill="#459AD5" d="M56,121.8c0.8-0.1,1.5-0.2,2.3-0.3c0.3,0,0.5,0,0.8,0c0.3,0,0.5,0.1,0.7,0.2c0.2,0.1,0.4,0.3,0.5,0.5
						c0.1,0.2,0.2,0.5,0.2,0.8c0,0.3-0.1,0.6-0.2,0.9c-0.2,0.3-0.4,0.5-0.7,0.7c0.4,0.7,0.9,1.3,1.3,2c-0.7,0.1-1.4,0.2-2.1,0.2
						c-0.3-0.6-0.7-1.2-1-1.8c0,0,0,0-0.1,0c0,0.6,0,1.3,0,1.9c-0.6,0.1-1.2,0.1-1.7,0.2C56,125.3,56,123.5,56,121.8z M57.7,123.8
						c0.1,0,0.2,0,0.3,0c0.1,0,0.1,0,0.2,0c0.1,0,0.1,0,0.2-0.1c0.1,0,0.1-0.1,0.2-0.2c0-0.1,0.1-0.1,0.1-0.2c0-0.1,0-0.2-0.1-0.2
						c0-0.1-0.1-0.1-0.1-0.1c-0.1,0-0.1,0-0.2,0c-0.1,0-0.1,0-0.2,0c-0.1,0-0.3,0-0.4,0.1C57.7,123.2,57.7,123.5,57.7,123.8z"/>
					<path fill="#459AD5" d="M61.1,123.7c0-0.4,0.1-0.8,0.2-1.2c0.1-0.4,0.4-0.7,0.6-0.9c0.3-0.3,0.6-0.5,0.9-0.7
						c0.4-0.2,0.8-0.3,1.2-0.3c0.4,0,0.8,0,1.2,0.1c0.4,0.1,0.7,0.3,0.9,0.5c0.3,0.2,0.5,0.5,0.6,0.8c0.2,0.3,0.2,0.7,0.2,1.1
						c0,0.4-0.1,0.8-0.2,1.2c-0.2,0.4-0.4,0.7-0.6,0.9c-0.3,0.3-0.6,0.5-0.9,0.7c-0.4,0.2-0.8,0.3-1.2,0.3c-0.4,0-0.8,0-1.2-0.1
						c-0.4-0.1-0.7-0.3-0.9-0.5c-0.3-0.2-0.5-0.5-0.6-0.8C61.2,124.5,61.1,124.2,61.1,123.7z M63,123.5c0,0.2,0,0.3,0.1,0.5
						c0.1,0.1,0.1,0.3,0.2,0.4c0.1,0.1,0.2,0.2,0.3,0.2c0.1,0,0.3,0.1,0.4,0c0.2,0,0.3-0.1,0.4-0.1c0.1-0.1,0.2-0.2,0.3-0.3
						c0.1-0.1,0.2-0.2,0.2-0.4c0.1-0.1,0.1-0.3,0.1-0.5c0-0.2,0-0.3-0.1-0.5c-0.1-0.1-0.1-0.2-0.2-0.3c-0.1-0.1-0.2-0.2-0.3-0.2
						c-0.1,0-0.3-0.1-0.4,0c-0.2,0-0.3,0.1-0.4,0.1c-0.1,0.1-0.2,0.2-0.3,0.3c-0.1,0.1-0.2,0.2-0.2,0.4C63,123.2,63,123.4,63,123.5z
						"/>
					<path fill="#459AD5" d="M67.5,123.2c0-0.4,0.1-0.8,0.2-1.2c0.2-0.4,0.4-0.7,0.6-0.9c0.3-0.3,0.6-0.5,0.9-0.6
						c0.4-0.2,0.7-0.3,1.1-0.3c0.4,0,0.8,0,1.2,0.1c0.4,0.1,0.7,0.3,0.9,0.5c-0.4,0.5-0.7,0.9-1.1,1.4c-0.1-0.1-0.2-0.2-0.4-0.3
						c-0.2-0.1-0.3-0.1-0.5-0.1c-0.2,0-0.3,0-0.4,0.1c-0.1,0.1-0.2,0.1-0.3,0.3c-0.1,0.1-0.2,0.2-0.2,0.4c-0.1,0.1-0.1,0.3-0.1,0.5
						c0,0.2,0,0.3,0.1,0.5c0.1,0.1,0.1,0.2,0.2,0.3c0.1,0.1,0.2,0.2,0.3,0.2c0.1,0,0.3,0.1,0.4,0c0.2,0,0.4-0.1,0.5-0.2
						c0.1-0.1,0.3-0.2,0.4-0.3c0.4,0.4,0.7,0.8,1.1,1.2c-0.2,0.3-0.5,0.5-0.9,0.6c-0.4,0.2-0.7,0.3-1.2,0.3c-0.4,0-0.8,0-1.1-0.1
						c-0.4-0.1-0.7-0.3-0.9-0.5c-0.3-0.2-0.5-0.5-0.6-0.8C67.6,124,67.5,123.6,67.5,123.2z"/>
					<path fill="#459AD5" d="M74.8,123.2C74.8,123.2,74.8,123.2,74.8,123.2c0,0.7,0,1.4,0,2.1c-0.6,0-1.2,0.1-1.7,0.1
						c0-1.8,0-3.5,0-5.3c0.6,0,1.2-0.1,1.7-0.1c0,0.6,0,1.3,0,1.9c0,0,0,0,0,0c0.5-0.7,0.9-1.3,1.4-2c0.7,0,1.4-0.1,2.1-0.1
						c-0.7,0.8-1.3,1.7-2,2.5c0.7,0.9,1.4,1.9,2.1,2.8c-0.7,0-1.5,0.1-2.2,0.1C75.7,124.6,75.2,123.9,74.8,123.2z"/>
					<path fill="#459AD5" d="M78.8,119.9c1.2,0,2.4-0.1,3.7-0.1c0,0.5,0,1,0,1.5c-0.7,0-1.3,0-2,0c0,0.2,0,0.3,0,0.5
						c0.6,0,1.2,0,1.9,0c0,0.5,0,0.9,0,1.4c-0.6,0-1.2,0-1.9,0c0,0.2,0,0.3,0,0.5c0.7,0,1.4,0,2.1,0c0,0.5,0,1,0,1.5
						c-1.3,0-2.5,0.1-3.8,0.1C78.8,123.4,78.8,121.6,78.8,119.9z"/>
					<path fill="#459AD5" d="M86,125c-0.6,0-1.2,0-1.8,0c0-1.3,0-2.5,0-3.8c-0.4,0-0.9,0-1.3,0c0-0.5,0-1,0-1.5c1.5,0,2.9,0,4.4,0
						c0,0.5,0,1,0,1.5c-0.4,0-0.9,0-1.3,0C86,122.5,86,123.8,86,125z"/>
					<path fill="#459AD5" d="M89.5,119.8c0.6,0,1.2,0,1.8,0c0,1.3,0,2.5,0,3.8c0.6,0,1.2,0,1.8,0c0,0.5,0,1,0,1.5
						c-1.2,0-2.4-0.1-3.6-0.1C89.5,123.3,89.5,121.5,89.5,119.8z"/>
					<path fill="#459AD5" d="M93.7,119.8c1.2,0,2.4,0.1,3.7,0.1c0,0.5,0,1,0,1.5c-0.7,0-1.3-0.1-2-0.1c0,0.2,0,0.3,0,0.5
						c0.6,0,1.2,0,1.9,0.1c0,0.5,0,0.9,0,1.4c-0.6,0-1.2-0.1-1.9-0.1c0,0.2,0,0.3,0,0.5c0.7,0,1.4,0.1,2.1,0.1c0,0.5,0,1,0,1.5
						c-1.3-0.1-2.5-0.1-3.8-0.1C93.7,123.4,93.7,121.6,93.7,119.8z"/>
					<path fill="#459AD5" d="M99.7,120.1c0.6,0,1.3,0.1,1.9,0.1c0.7,1.8,1.4,3.6,2.1,5.4c-0.6,0-1.3-0.1-1.9-0.1
						c-0.1-0.3-0.2-0.5-0.3-0.8c-0.6,0-1.1-0.1-1.7-0.1c-0.1,0.3-0.2,0.5-0.3,0.8c-0.6,0-1.3-0.1-1.9-0.1
						C98.3,123.6,99,121.8,99.7,120.1z M100.6,122c-0.1,0.4-0.3,0.9-0.4,1.3c0.3,0,0.6,0,0.9,0.1C100.9,122.9,100.8,122.4,100.6,122
						z"/>
					<path fill="#459AD5" d="M106.6,126c-0.4,0-0.8-0.1-1.2-0.3c-0.4-0.2-0.7-0.4-0.9-0.6c-0.3-0.3-0.5-0.6-0.6-0.9
						c-0.2-0.4-0.2-0.7-0.2-1.2c0-0.4,0.1-0.8,0.2-1.1c0.2-0.3,0.4-0.6,0.6-0.8c0.3-0.2,0.6-0.4,0.9-0.5c0.4-0.1,0.7-0.1,1.1-0.1
						c0.4,0,0.8,0.1,1.2,0.3c0.4,0.2,0.7,0.4,0.9,0.6c-0.3,0.4-0.7,0.8-1,1.1c-0.1-0.1-0.2-0.3-0.4-0.3c-0.1-0.1-0.3-0.1-0.6-0.2
						c-0.1,0-0.3,0-0.4,0c-0.1,0-0.3,0.1-0.4,0.2c-0.1,0.1-0.2,0.2-0.3,0.4c-0.1,0.1-0.1,0.3-0.1,0.5c0,0.4,0.1,0.7,0.3,0.9
						c0.2,0.2,0.5,0.4,0.9,0.4c0.1,0,0.2,0,0.2,0c0.1,0,0.1,0,0.2,0c0-0.1,0-0.3,0-0.4c-0.3,0-0.6-0.1-0.9-0.1c0-0.5,0-0.9,0-1.4
						c0.8,0.1,1.6,0.1,2.4,0.2c0,1,0,1.9,0,2.9c-0.1,0.1-0.3,0.1-0.4,0.2c-0.2,0-0.3,0.1-0.5,0.1c-0.2,0-0.4,0-0.6,0.1
						C107,126,106.8,126,106.6,126z"/>
					<path fill="#459AD5" d="M112.1,126.6c-0.4,0-0.8-0.1-1.1-0.3c-0.3-0.1-0.6-0.3-0.8-0.5c-0.2-0.2-0.4-0.5-0.5-0.8
						c-0.1-0.3-0.2-0.6-0.2-0.9c0-1.1,0-2.1,0-3.2c0.6,0.1,1.2,0.1,1.8,0.2c0,1,0,2,0,3c0,0.3,0.1,0.5,0.2,0.6
						c0.1,0.2,0.3,0.2,0.5,0.3c0.2,0,0.4,0,0.5-0.2c0.1-0.1,0.2-0.3,0.2-0.6c0-1,0-2,0-3c0.6,0.1,1.2,0.1,1.8,0.2c0,1.1,0,2.1,0,3.2
						c0,0.3-0.1,0.6-0.2,0.9c-0.1,0.3-0.3,0.5-0.5,0.6c-0.2,0.2-0.5,0.3-0.8,0.4C112.8,126.6,112.5,126.6,112.1,126.6z"/>
					<path fill="#459AD5" d="M115.5,121.5c1.2,0.2,2.4,0.3,3.6,0.5c0,0.5,0,1,0,1.5c-0.7-0.1-1.3-0.2-2-0.3c0,0.2,0,0.3,0,0.5
						c0.6,0.1,1.2,0.2,1.9,0.3c0,0.5,0,0.9,0,1.4c-0.6-0.1-1.2-0.2-1.9-0.3c0,0.2,0,0.3,0,0.5c0.7,0.1,1.4,0.2,2.1,0.3
						c0,0.5,0,1,0,1.5c-1.3-0.2-2.5-0.3-3.8-0.5C115.5,125.1,115.5,123.3,115.5,121.5z"/>
				</g>
				<g>
					<path fill="#459AD5" d="M29.5,155.4c-0.8,0.2-1.5,0.3-2.3,0.4c-0.7,0.1-1.5,0.1-2.1,0c-0.7-0.1-1.3-0.2-1.9-0.4
						c-0.6-0.2-1.1-0.4-1.6-0.7c1.3-1.8,2.6-3.6,3.9-5.4c0.4,0.4,1,0.6,1.8,0.8c0.7,0.2,1.5,0.2,2.3,0c0.4-0.1,0.7-0.2,1-0.4
						c0.3-0.2,0.4-0.5,0.4-0.8c0-0.2,0-0.3-0.1-0.4c-0.1-0.1-0.3-0.2-0.5-0.3c-0.2-0.1-0.6-0.1-1-0.2c-0.4-0.1-1-0.1-1.6-0.1
						c-0.6,0-1.3-0.1-1.8-0.3c-0.6-0.1-1.1-0.4-1.6-0.7c-0.5-0.3-0.8-0.7-1.1-1.3c-0.3-0.5-0.4-1.2-0.4-2.1c0-1.2,0.2-2.3,0.7-3.2
						c0.5-1,1.1-1.8,1.9-2.6c0.8-0.7,1.6-1.4,2.5-1.8c0.9-0.5,1.9-0.8,2.8-1.1c1.2-0.3,2.5-0.4,3.8-0.2c1.3,0.2,2.4,0.6,3.4,1.4
						c-1.3,1.6-2.7,3.3-4,5c-0.4-0.4-1-0.7-1.6-0.9c-0.6-0.1-1.2-0.1-1.7,0c-0.5,0.1-0.8,0.3-1.1,0.5c-0.3,0.2-0.4,0.5-0.4,0.8
						c0,0.3,0.1,0.5,0.4,0.5c0.3,0.1,0.8,0.1,1.4,0.2c0.7,0,1.4,0.1,2.1,0.2c0.8,0.1,1.4,0.3,2.1,0.6c0.6,0.3,1.2,0.8,1.6,1.3
						c0.4,0.6,0.6,1.4,0.6,2.4c0,1.2-0.2,2.2-0.7,3.2c-0.5,1-1.1,1.8-1.8,2.5c-0.7,0.7-1.6,1.4-2.5,1.9
						C31.4,154.8,30.5,155.2,29.5,155.4z"/>
					<path fill="#459AD5" d="M49.1,150.8c-2.2,0.4-4.3,0.7-6.4,1.1c0-4.6,0-9.2,0-13.7c-1.6,0.3-3.1,0.6-4.7,1c0-1.8,0-3.6,0-5.5
						c5.3-1.1,10.6-2.1,15.9-2.8c0,1.8,0,3.6,0,5.5c-1.6,0.2-3.2,0.5-4.7,0.7C49.1,141.7,49.1,146.3,49.1,150.8z"/>
					<path fill="#459AD5" d="M59.5,130.2c2.3-0.3,4.6-0.5,6.9-0.7c2.5,6.2,5,12.4,7.5,18.7c-2.4,0.1-4.7,0.3-7.1,0.5
						c-0.3-0.9-0.7-1.8-1-2.7c-2,0.2-4.1,0.4-6.1,0.6c-0.3,1-0.6,2-1,2.9c-2.3,0.3-4.6,0.6-6.9,0.9C54.4,143.6,57,136.9,59.5,130.2z
						 M62.9,136.5c-0.5,1.6-1.1,3.3-1.6,4.9c1-0.1,2.1-0.2,3.1-0.3C63.9,139.6,63.4,138,62.9,136.5z"/>
					<path fill="#459AD5" d="M75.3,148.1c0-6.4,0-12.8,0-19.2c2.4-0.1,4.8-0.2,7.2-0.2c1.5,0,3,0.1,4.4,0.4c1.4,0.3,2.6,0.8,3.7,1.6
						c1.1,0.8,1.9,1.7,2.6,3c0.6,1.2,1,2.8,1,4.6c0,1.7-0.3,3.1-0.9,4.3c-0.6,1.2-1.4,2.2-2.5,3c-1,0.8-2.2,1.3-3.5,1.7
						c-1.3,0.4-2.7,0.6-4.2,0.6C80.5,147.9,77.9,148,75.3,148.1z M81.6,134.1c0,2.7,0,5.4,0,8.2c0.4,0,0.8,0,1.2,0
						c1.5,0,2.7-0.4,3.5-1c0.8-0.7,1.2-1.7,1.2-3.2c0-1.2-0.4-2.2-1.2-2.9c-0.8-0.7-1.9-1-3.3-1C82.6,134.1,82.1,134.1,81.6,134.1z"
						/>
					<path fill="#459AD5" d="M96.9,128.8c2.2,0.1,4.4,0.2,6.6,0.4c0,6.4,0,12.8,0,19.2c-2.2-0.2-4.4-0.3-6.6-0.4
						C96.9,141.6,96.9,135.2,96.9,128.8z"/>
					<path fill="#459AD5" d="M115.8,150.2c-1.5-0.2-2.8-0.5-3.9-1.1c-1.1-0.5-2.1-1.2-2.8-2c-0.7-0.8-1.3-1.7-1.7-2.7
						c-0.4-1-0.5-2.1-0.5-3.2c0-3.9,0-7.8,0-11.7c2.2,0.2,4.3,0.4,6.5,0.7c0,3.7,0,7.3,0,11c0,0.9,0.2,1.7,0.7,2.2
						c0.4,0.6,1.1,0.9,1.9,1c0.8,0.1,1.4-0.1,1.9-0.5c0.4-0.5,0.7-1.1,0.7-2.1c0-3.7,0-7.3,0-11c2.1,0.3,4.3,0.6,6.4,1
						c0,3.9,0,7.8,0,11.7c0,1.1-0.2,2.2-0.6,3.1c-0.4,0.9-1,1.7-1.7,2.3c-0.8,0.6-1.7,1-2.8,1.3
						C118.6,150.3,117.3,150.4,115.8,150.2z"/>
					<path fill="#459AD5" d="M133.9,141.8c0.1,3.6,0.2,7.3,0.3,10.9c-2-0.4-4-0.8-6-1.2c0-6.4,0-12.8,0-19.2
						c2.8,0.5,5.6,1.1,8.4,1.7c1.1,3.7,2.3,7.4,3.4,11.1c0,0,0.1,0,0.1,0c1-3.2,2-6.4,3-9.6c2.9,0.7,5.7,1.5,8.6,2.3
						c0,6.4,0,12.8,0,19.2c-2.1-0.6-4.1-1.2-6.2-1.7c0.1-3.6,0.1-7.2,0.2-10.7c-0.1,0-0.1,0-0.2-0.1c-1.2,3.3-2.4,6.6-3.5,9.9
						c-1.5-0.4-3-0.7-4.5-1.1c-1.2-3.9-2.3-7.7-3.5-11.6C133.9,141.8,133.9,141.8,133.9,141.8z"/>
				</g>
			</g>
		</g>
	</g>
	<g>
		<g>
			<g>
				<path fill="#FFFFFF" d="M53.1,127.7c-0.7,0-1.4-0.3-2-0.7c-0.7-0.6-1-1.4-1-2.3v-5.3c0-1.5,1.1-2.7,2.6-3
					c0.8-0.1,1.5-0.2,2.3-0.3c0.3,0,0.6-0.1,0.9-0.1c0.1,0,0.3,0,0.4,0c0.7,0,1.3,0.2,1.9,0.5c0.7,0.3,1.2,0.9,1.7,1.6
					c0.4,0.7,0.6,1.5,0.6,2.4c0,0.5-0.1,1.1-0.3,1.6l0.2,0.2c0.6,0.9,0.7,2,0.3,2.9c-0.4,1-1.3,1.6-2.4,1.7c-0.7,0.1-1.3,0.2-2,0.3
					c-0.1,0-0.3,0-0.4,0c0,0-0.1,0-0.1,0c-0.2,0.1-0.3,0.1-0.5,0.1c-0.6,0.1-1.1,0.2-1.7,0.2C53.4,127.7,53.2,127.7,53.1,127.7z"/>
				<path fill="#FFFFFF" d="M60.7,126.8c-0.5,0-1-0.1-1.5-0.2c-0.8-0.2-1.5-0.6-2.1-1c-0.6-0.5-1.1-1.1-1.4-1.9
					c-0.3-0.7-0.5-1.5-0.5-2.4c0-0.8,0.2-1.6,0.5-2.3c0.3-0.7,0.7-1.3,1.2-1.9c0.5-0.5,1.1-1,1.8-1.3c0.6-0.3,1.4-0.5,2.1-0.6
					c0.3,0,0.5,0,0.7,0c0.5,0,1,0.1,1.5,0.2c0.8,0.2,1.5,0.5,2.1,1c0.6,0.5,1.1,1.1,1.5,1.9c0.3,0.7,0.5,1.5,0.5,2.4
					c0,0.8-0.2,1.6-0.5,2.3c-0.3,0.7-0.7,1.3-1.2,1.9c-0.5,0.5-1.1,1-1.8,1.3c-0.7,0.3-1.4,0.5-2.1,0.6
					C61.2,126.8,61,126.8,60.7,126.8z"/>
				<path fill="#FFFFFF" d="M67.2,126.2c-0.6,0-1.2-0.1-1.7-0.2c-0.8-0.2-1.4-0.6-2-1.1c-0.6-0.5-1.1-1.1-1.4-1.8
					c-0.3-0.7-0.5-1.5-0.5-2.4c0-0.8,0.2-1.6,0.5-2.3c0.3-0.7,0.7-1.3,1.2-1.9c0.5-0.5,1.1-1,1.8-1.3c0.7-0.3,1.4-0.5,2.1-0.6
					c0.2,0,0.4,0,0.5,0c0.6,0,1.2,0.1,1.7,0.2c0.8,0.2,1.5,0.6,2,1.1c1.2,1,1.4,2.9,0.4,4.2l-0.1,0.2l0,0c1,1.2,1,2.9,0,4.1
					c-0.5,0.5-1.1,1-1.8,1.3c-0.7,0.3-1.4,0.5-2.2,0.6C67.6,126.2,67.4,126.2,67.2,126.2z"/>
				<path fill="#FFFFFF" d="M70.1,125.9c-0.8,0-1.5-0.3-2-0.8c-0.6-0.6-1-1.4-1-2.2v-5.3c0-1.6,1.2-2.9,2.8-3c0.6,0,1.2-0.1,1.8-0.1
					c0.1,0,0.1,0,0.2,0c0.2,0,0.4,0,0.6,0.1c0.2-0.1,0.5-0.1,0.7-0.1c0.7,0,1.4-0.1,2.1-0.1c0,0,0.1,0,0.1,0c1.1,0,2.2,0.6,2.7,1.6
					c0.5,1,0.4,2.3-0.3,3.2c-0.2,0.2-0.4,0.5-0.5,0.7c0.2,0.3,0.5,0.6,0.7,0.9c0.7,0.9,0.8,2.1,0.3,3.1c-0.5,1-1.5,1.7-2.6,1.7
					c-0.7,0-1.4,0.1-2.2,0.1c-0.1,0-0.1,0-0.2,0c-0.2,0-0.4,0-0.6-0.1c-0.2,0.1-0.5,0.1-0.7,0.1c-0.6,0-1.1,0.1-1.7,0.1
					C70.2,125.8,70.1,125.9,70.1,125.9z"/>
				<path fill="#FFFFFF" d="M75.8,125.5c-0.8,0-1.5-0.3-2.1-0.8c-0.6-0.6-0.9-1.3-0.9-2.2v-5.3c0-1.6,1.3-2.9,2.9-3
					c1.2-0.1,2.5-0.1,3.7-0.1c0,0,0,0,0.1,0c0.8,0,1.5,0.3,2.1,0.9c0.6,0.6,0.9,1.3,0.9,2.1v1.5c0,0.3,0,0.6-0.1,0.8v0.3
					c0.2,0.4,0.2,0.8,0.2,1.2v1.5c0,1.6-1.3,3-2.9,3c-1.2,0-2.5,0.1-3.7,0.1C75.9,125.5,75.9,125.5,75.8,125.5z"/>
				<path fill="#FFFFFF" d="M81.2,125.4c-0.8,0-1.5-0.3-2.1-0.9c-0.6-0.6-0.9-1.3-0.9-2.1v-1.3c-0.1-0.1-0.3-0.2-0.4-0.3
					c-0.6-0.6-0.9-1.3-0.9-2.1v-1.5c0-1.6,1.3-3,2.9-3c1.5,0,3,0,4.5-0.1c0,0,0,0,0,0c0.8,0,1.6,0.3,2.1,0.9
					c0.6,0.6,0.9,1.3,0.9,2.1v1.5c0,1-0.5,1.9-1.3,2.5v1.3c0,1.6-1.3,3-3,3C82.5,125.4,81.3,125.4,81.2,125.4z"/>
				<path fill="#FFFFFF" d="M90.1,125.4c-1.2,0-2.4-0.1-3.5-0.1c-1.6,0-3-1.4-3-3v-5.3c0-0.8,0.3-1.6,0.9-2.1
					c0.6-0.6,1.3-0.9,2.1-0.9c0,0,1.3,0,1.9,0c1.6,0,2.9,1.4,2.9,3v1.1c1,0.5,1.8,1.5,1.8,2.7v1.5c0,0.8-0.3,1.6-0.9,2.1
					C91.7,125.1,91,125.4,90.1,125.4C90.2,125.4,90.1,125.4,90.1,125.4z"/>
				<path fill="#FFFFFF" d="M94.4,125.6c-1.2-0.1-2.5-0.1-3.7-0.1c-1.6,0-2.9-1.4-2.9-3v-5.3c0-0.8,0.3-1.6,0.9-2.2
					c0.6-0.5,1.3-0.8,2.1-0.8c0,0,0.1,0,0.1,0c1.2,0,2.5,0.1,3.7,0.1c1.6,0.1,2.9,1.4,2.9,3v1.5c0,0.3,0,0.6-0.1,0.8v0.3
					c0.2,0.4,0.2,0.8,0.2,1.2v1.5c0,0.8-0.3,1.6-0.9,2.2c-0.6,0.5-1.3,0.8-2.1,0.8C94.5,125.6,94.5,125.6,94.4,125.6z"/>
				<path fill="#FFFFFF" d="M100.5,126c-0.6,0-1.3-0.1-1.9-0.1c-0.4,0-0.8-0.1-1.1-0.3c-0.3,0.1-0.6,0.2-0.9,0.2c-0.1,0-0.1,0-0.2,0
					c-0.6,0-1.2-0.1-1.9-0.1c-1,0-1.9-0.6-2.4-1.4s-0.6-1.8-0.3-2.7l2.1-5.2c0.5-1.1,1.6-1.9,2.8-1.9c0.1,0,0.1,0,0.2,0
					c0.6,0,1.3,0.1,1.9,0.1c1.2,0.1,2.2,0.8,2.6,1.9c0.7,1.8,1.4,3.6,2.1,5.4c0.4,1,0.2,2-0.4,2.9c-0.6,0.8-1.5,1.2-2.4,1.2
					C100.7,126,100.6,126,100.5,126z"/>
				<path fill="#FFFFFF" d="M104.1,126.4c-0.2,0-0.4,0-0.7,0c-0.8-0.1-1.5-0.3-2.1-0.5c-0.7-0.3-1.3-0.7-1.8-1.3
					c-0.5-0.5-1-1.2-1.3-1.9c-0.3-0.7-0.5-1.5-0.5-2.3c0-0.9,0.2-1.7,0.5-2.4c0.3-0.7,0.8-1.4,1.4-1.9c0.6-0.5,1.3-0.9,2-1.1
					c0.5-0.2,1.1-0.2,1.7-0.2c0.2,0,0.4,0,0.6,0c0.8,0.1,1.5,0.3,2.2,0.6c0.8,0.3,1.4,0.8,1.9,1.4c0.6,0.7,0.9,1.7,0.7,2.5
					c0.1,0.3,0.1,0.6,0.1,0.9v2.9c0,1.1-0.6,2.2-1.7,2.7c-0.3,0.1-0.6,0.3-0.9,0.4c-0.3,0.1-0.6,0.1-0.9,0.2c-0.3,0-0.6,0.1-0.9,0.1
					C104.3,126.4,104.2,126.4,104.1,126.4z"/>
				<path fill="#FFFFFF" d="M109.6,127c-0.3,0-0.5,0-0.8,0c-0.7-0.1-1.4-0.3-2-0.6c-0.6-0.3-1.2-0.7-1.7-1.2
					c-0.5-0.5-0.9-1.1-1.1-1.8c-0.2-0.6-0.3-1.2-0.3-1.9v-3.2c0-0.8,0.4-1.7,1-2.2c0.6-0.5,1.3-0.8,2-0.8c0.1,0,0.2,0,0.3,0
					c0.6,0.1,1.2,0.1,1.8,0.2c0.2,0,0.5,0.1,0.7,0.2c0.1,0,0.2,0,0.4,0c0.1,0,0.2,0,0.4,0c0.6,0.1,1.2,0.1,1.8,0.2
					c1.5,0.2,2.6,1.5,2.6,3v3.2c0,0.7-0.1,1.4-0.4,2c-0.3,0.7-0.7,1.3-1.3,1.8c-0.6,0.5-1.2,0.8-2,1
					C110.5,126.9,110.1,127,109.6,127z"/>
				<path fill="#FFFFFF" d="M116.3,127.7c-0.1,0-0.3,0-0.4,0c-1.2-0.2-2.5-0.4-3.7-0.5c-1.5-0.2-2.6-1.5-2.6-3v-5.3
					c0-0.9,0.4-1.7,1-2.3c0.5-0.5,1.3-0.7,2-0.7c0.1,0,0.3,0,0.4,0c1.2,0.2,2.5,0.3,3.7,0.5c1.5,0.2,2.6,1.5,2.6,3v1.5
					c0,0.3,0,0.6-0.1,0.8v0.3c0.2,0.4,0.2,0.8,0.2,1.2v1.5c0,0.9-0.4,1.7-1,2.3C117.7,127.5,117,127.7,116.3,127.7z"/>
			</g>
			<g>
				<path fill="#FFFFFF" d="M29.9,158.1c-0.4,0-0.9,0-1.3-0.1c-1.8-0.2-3.5-0.7-4.9-1.6c-1.5-1-2.6-2.3-3.4-3.9
					c-0.8-1.6-1.2-3.4-1.2-5.5c0-2,0.4-3.9,1-5.8c0.7-1.8,1.6-3.5,2.8-4.9c1.2-1.5,2.6-2.8,4.2-3.8c1.6-1.1,3.4-1.8,5.2-2.3
					c1.3-0.3,2.6-0.5,3.8-0.5c0.6,0,1.3,0,1.9,0.1c2,0.3,3.6,0.9,5,2c1.2,1,1.5,2.8,0.6,4.1c-0.2,0.3-0.5,0.7-0.7,1
					c0.2,0.1,0.3,0.2,0.5,0.3c0.7,0.6,1.1,1.4,1.1,2.3v11.2c0,0.9-0.4,1.8-1.1,2.3c-0.6,0.5-1.3,0.9-2,1.4c-0.7,0.4-1.5,0.8-2.2,1.2
					c-0.8,0.4-1.6,0.7-2.4,1c-0.9,0.3-1.8,0.6-2.6,0.8C32.6,157.9,31.2,158.1,29.9,158.1z"/>
				<path fill="#FFFFFF" d="M42.5,155.1c-0.9,0-1.7-0.4-2.3-1c-0.7-0.8-0.9-2-0.5-3c2.7-7.3,5.4-14.7,8.1-22c0.4-1,1.3-1.7,2.3-1.9
					c2.5-0.4,5-0.8,7.5-1.1c0.1,0,0.3,0,0.4,0c1.2,0,2.3,0.7,2.8,1.9c2.7,6.5,5.4,13.1,8.1,19.7c0.4,0.9,0.3,1.9-0.2,2.7
					c-0.5,0.8-1.3,1.3-2.3,1.4c-2.5,0.2-5,0.5-7.5,0.8c-0.1,0-0.2,0-0.4,0c-1.2,0-2.4-0.8-2.8-1.9l-0.2-0.6
					c-0.8,0.1-1.5,0.2-2.3,0.3l-0.5,1.4c-0.3,1.1-1.3,1.9-2.4,2c-2.4,0.4-4.8,0.8-7.2,1.3C42.9,155,42.7,155.1,42.5,155.1z"/>
				<path fill="#FFFFFF" d="M67.5,151.5c-0.8,0-1.5-0.3-2-0.8c-0.6-0.6-1-1.4-1-2.2V128c0-1.6,1.2-2.9,2.8-3c3-0.2,6.1-0.4,9.1-0.5
					c0.2,0,0.4,0,0.7,0c1,0,2,0.1,3,0.3c1.4,0.2,2.7,0.7,3.8,1.4c1.2,0.8,2.2,1.8,2.9,3.1c0.7,1.3,1.1,2.9,1.1,4.7
					c0,1.8-0.5,3.5-1.4,5c-0.3,0.5-0.7,1-1.1,1.4c1.2,2,2.5,3.9,3.7,5.9c0.6,0.9,0.6,2.1,0.1,3.1c-0.5,1-1.5,1.5-2.6,1.5
					c0,0,0,0,0,0c-0.6,0-1.2,0-1.8,0c-2,0-4.1,0-6.1,0.1c0,0-0.1,0-0.1,0c-0.8,0-1.5-0.3-2-0.8c-0.5,0.5-1.2,0.9-2,0.9
					c-2.2,0.1-4.4,0.3-6.7,0.4C67.6,151.5,67.6,151.5,67.5,151.5z"/>
				<path fill="#FFFFFF" d="M109.7,152.3c-0.1,0-0.2,0-0.4,0c-2.5-0.3-5-0.5-7.5-0.8c-1.2-0.1-2.2-0.9-2.6-2l-0.4-1.2
					c-0.8-0.1-1.5-0.1-2.3-0.1l-0.3,0.8c-0.4,1.2-1.6,2-2.8,2c0,0-0.1,0-0.1,0c-2.4-0.1-4.8-0.2-7.3-0.2c-1,0-1.9-0.5-2.5-1.3
					c-0.6-0.8-0.7-1.9-0.3-2.8c2.7-6.8,5.5-13.6,8.2-20.3c0.5-1.1,1.6-1.9,2.8-1.9c0,0,0.1,0,0.1,0c2.5,0.1,5,0.3,7.5,0.5
					c1.2,0.1,2.2,0.8,2.6,1.9c2.7,7.1,5.4,14.2,8.1,21.3c0.4,1,0.2,2.1-0.4,2.9C111.4,151.9,110.6,152.3,109.7,152.3z"/>
				<path fill="#FFFFFF" d="M124.5,154.8c-0.4,0-0.9,0-1.3,0c-0.9,0-1.8-0.1-2.7-0.3c-1.9-0.3-3.7-0.9-5.4-1.8
					c-1.7-0.9-3.2-2-4.4-3.3c-1.3-1.3-2.3-2.9-3-4.6c-0.7-1.8-1.1-3.7-1.1-5.7c0-2.1,0.4-4,1.2-5.6c0.8-1.7,1.9-3.1,3.2-4.2
					c1.4-1.1,3-1.9,4.8-2.3c0.9-0.2,1.9-0.3,2.9-0.3c0.8,0,1.7,0.1,2.6,0.2c1.9,0.3,3.8,1,5.5,2c1.8,1,3.2,2.2,4.4,3.6
					c1,1.2,0.9,2.9-0.2,4c-0.2,0.2-0.4,0.4-0.6,0.6c1.1,0.5,1.9,1.5,1.9,2.8v11.2c0,1.2-0.8,2.3-1.9,2.8c-0.7,0.3-1.4,0.5-2.2,0.6
					c-0.8,0.1-1.5,0.2-2.4,0.3C125.3,154.8,124.9,154.8,124.5,154.8z"/>
				<path fill="#FFFFFF" d="M147.1,160.2c-0.3,0-0.6,0-0.9-0.1c-4.7-1.4-9.4-2.7-14.2-3.8c-1.4-0.3-2.3-1.5-2.3-2.9v-20.5
					c0-0.9,0.4-1.8,1.1-2.3c0.5-0.4,1.2-0.7,1.9-0.7c0.2,0,0.5,0,0.7,0.1c4.7,1.1,9.5,2.4,14.1,3.8c1.3,0.4,2.1,1.5,2.1,2.9v5.7
					c0,0.6-0.2,1.1-0.5,1.6c0,0,0,5.4,0,5.4c0.6,0.6,0.9,1.3,0.9,2.2v5.7c0,1-0.5,1.8-1.2,2.4C148.3,160,147.7,160.2,147.1,160.2z"
					/>
			</g>
		</g>
		<g>
			<g id="XMLID_252_">
				<g id="XMLID_270_">
					<path id="XMLID_295_" fill="#6A64AB" d="M52.9,119.4c0.8-0.1,1.5-0.2,2.3-0.3c0.3,0,0.5,0,0.8,0c0.3,0,0.5,0.1,0.7,0.2
						c0.2,0.1,0.4,0.3,0.5,0.5c0.1,0.2,0.2,0.5,0.2,0.8c0,0.3-0.1,0.6-0.2,0.9c-0.2,0.3-0.4,0.5-0.7,0.7c0.4,0.7,0.9,1.3,1.3,2
						c-0.7,0.1-1.4,0.2-2,0.3c-0.3-0.6-0.7-1.2-1-1.7c0,0,0,0-0.1,0c0,0.6,0,1.3,0,1.9c-0.6,0.1-1.2,0.2-1.7,0.3
						C52.9,122.9,52.9,121.2,52.9,119.4z M54.6,121.4c0.1,0,0.2,0,0.3,0c0.1,0,0.1,0,0.2,0c0.1,0,0.1-0.1,0.2-0.1
						c0.1,0,0.1-0.1,0.2-0.2c0-0.1,0.1-0.1,0.1-0.2c0-0.1,0-0.2-0.1-0.2c0,0-0.1-0.1-0.1-0.1c-0.1,0-0.1,0-0.2,0c-0.1,0-0.1,0-0.2,0
						c-0.1,0-0.3,0-0.4,0.1C54.6,120.8,54.6,121.1,54.6,121.4z"/>
					<path id="XMLID_292_" fill="#6A64AB" d="M58,121.3c0-0.4,0.1-0.8,0.2-1.2c0.2-0.4,0.4-0.7,0.6-0.9c0.3-0.3,0.6-0.5,0.9-0.7
						c0.4-0.2,0.8-0.3,1.2-0.3c0.4,0,0.8,0,1.2,0.1c0.4,0.1,0.7,0.2,0.9,0.5c0.3,0.2,0.5,0.5,0.6,0.8c0.2,0.3,0.2,0.7,0.2,1.1
						c0,0.4-0.1,0.8-0.2,1.2c-0.2,0.4-0.4,0.7-0.6,1c-0.3,0.3-0.6,0.5-0.9,0.7c-0.4,0.2-0.8,0.3-1.2,0.3c-0.4,0-0.8,0-1.2-0.1
						c-0.4-0.1-0.7-0.2-0.9-0.5c-0.3-0.2-0.5-0.5-0.6-0.8C58.1,122.1,58,121.7,58,121.3z M59.9,121.1c0,0.2,0,0.3,0.1,0.5
						c0.1,0.1,0.1,0.3,0.2,0.3c0.1,0.1,0.2,0.2,0.3,0.2c0.1,0,0.3,0.1,0.4,0c0.1,0,0.3-0.1,0.4-0.1c0.1-0.1,0.2-0.2,0.3-0.3
						c0.1-0.1,0.2-0.2,0.2-0.4c0.1-0.2,0.1-0.3,0.1-0.5c0-0.2,0-0.3-0.1-0.5c-0.1-0.1-0.1-0.2-0.2-0.3c-0.1-0.1-0.2-0.2-0.3-0.2
						c-0.1,0-0.3-0.1-0.4,0c-0.2,0-0.3,0.1-0.4,0.1c-0.1,0.1-0.2,0.2-0.3,0.3c-0.1,0.1-0.2,0.2-0.2,0.4
						C59.9,120.7,59.9,120.9,59.9,121.1z"/>
					<path id="XMLID_290_" fill="#6A64AB" d="M64.4,120.6c0-0.4,0.1-0.8,0.2-1.2c0.2-0.4,0.4-0.7,0.6-0.9c0.3-0.3,0.6-0.5,0.9-0.6
						c0.4-0.2,0.7-0.3,1.1-0.3c0.4,0,0.8,0,1.2,0.1c0.4,0.1,0.7,0.3,0.9,0.5c-0.4,0.5-0.7,0.9-1.1,1.4c-0.1-0.1-0.2-0.2-0.4-0.3
						c-0.2-0.1-0.3-0.1-0.5-0.1c-0.2,0-0.3,0.1-0.4,0.1c-0.1,0.1-0.2,0.1-0.3,0.3c-0.1,0.1-0.2,0.2-0.2,0.4
						c-0.1,0.1-0.1,0.3-0.1,0.5c0,0.2,0,0.3,0.1,0.5c0.1,0.1,0.1,0.2,0.2,0.3c0.1,0.1,0.2,0.2,0.3,0.2c0.1,0,0.3,0.1,0.4,0
						c0.2,0,0.4-0.1,0.5-0.2c0.1-0.1,0.3-0.2,0.3-0.3c0.4,0.4,0.7,0.8,1.1,1.2c-0.2,0.3-0.5,0.5-0.9,0.6c-0.4,0.2-0.8,0.3-1.2,0.3
						c-0.4,0-0.8,0-1.1-0.1c-0.4-0.1-0.7-0.3-0.9-0.5c-0.3-0.2-0.5-0.5-0.6-0.8C64.5,121.4,64.4,121,64.4,120.6z"/>
					<path id="XMLID_288_" fill="#6A64AB" d="M71.7,120.6C71.7,120.6,71.7,120.6,71.7,120.6c0,0.7,0,1.4,0,2.1
						c-0.6,0-1.2,0.1-1.7,0.1c0-1.8,0-3.5,0-5.3c0.6,0,1.2-0.1,1.7-0.1c0,0.6,0,1.3,0,1.9c0,0,0,0,0,0c0.5-0.7,0.9-1.4,1.4-2
						c0.7,0,1.4-0.1,2.1-0.1c-0.7,0.8-1.3,1.7-2,2.5c0.7,0.9,1.4,1.8,2.1,2.8c-0.7,0-1.5,0.1-2.2,0.1
						C72.6,121.9,72.2,121.3,71.7,120.6z"/>
					<path id="XMLID_286_" fill="#6A64AB" d="M75.7,117.2c1.2-0.1,2.4-0.1,3.7-0.1c0,0.5,0,1,0,1.5c-0.7,0-1.3,0-2,0.1
						c0,0.2,0,0.3,0,0.5c0.6,0,1.2,0,1.9-0.1c0,0.5,0,0.9,0,1.4c-0.6,0-1.2,0-1.9,0.1c0,0.2,0,0.3,0,0.5c0.7,0,1.4,0,2.1-0.1
						c0,0.5,0,1,0,1.5c-1.3,0-2.5,0.1-3.8,0.1C75.7,120.7,75.7,119,75.7,117.2z"/>
					<path id="XMLID_284_" fill="#6A64AB" d="M82.9,122.3c-0.6,0-1.2,0-1.8,0c0-1.3,0-2.5,0-3.8c-0.4,0-0.9,0-1.3,0c0-0.5,0-1,0-1.5
						c1.5,0,2.9-0.1,4.4-0.1c0,0.5,0,1,0,1.5c-0.4,0-0.9,0-1.3,0C82.9,119.8,82.9,121.1,82.9,122.3z"/>
					<path id="XMLID_282_" fill="#6A64AB" d="M86.6,117c0.6,0,1.2,0,1.8,0c0,1.3,0,2.5,0,3.8c0.6,0,1.2,0,1.8,0c0,0.5,0,1,0,1.5
						c-1.2,0-2.4-0.1-3.6-0.1C86.6,120.6,86.6,118.8,86.6,117z"/>
					<path id="XMLID_280_" fill="#6A64AB" d="M90.8,117.1c1.2,0,2.4,0.1,3.7,0.1c0,0.5,0,1,0,1.5c-0.7,0-1.3-0.1-2-0.1
						c0,0.2,0,0.3,0,0.5c0.6,0,1.2,0,1.9,0.1c0,0.5,0,0.9,0,1.4c-0.6,0-1.2-0.1-1.9-0.1c0,0.2,0,0.3,0,0.5c0.7,0,1.4,0.1,2.1,0.1
						c0,0.5,0,1,0,1.5c-1.3-0.1-2.5-0.1-3.8-0.1C90.8,120.6,90.8,118.9,90.8,117.1z"/>
					<path id="XMLID_277_" fill="#6A64AB" d="M96.8,117.4c0.6,0,1.3,0.1,1.9,0.1c0.7,1.8,1.4,3.6,2.1,5.4c-0.7,0-1.3-0.1-2-0.1
						c-0.1-0.3-0.2-0.5-0.3-0.8c-0.6,0-1.1-0.1-1.7-0.1c-0.1,0.3-0.2,0.5-0.3,0.8c-0.6,0-1.3-0.1-1.9-0.1
						C95.4,120.8,96.1,119.1,96.8,117.4z M97.7,119.3c-0.1,0.4-0.3,0.9-0.4,1.3c0.3,0,0.6,0,0.9,0.1C98,120.2,97.9,119.7,97.7,119.3
						z"/>
					<path id="XMLID_275_" fill="#6A64AB" d="M103.9,123.3c-0.4,0-0.8-0.1-1.2-0.3c-0.4-0.2-0.7-0.4-0.9-0.6
						c-0.3-0.3-0.5-0.6-0.6-0.9c-0.2-0.4-0.2-0.7-0.2-1.2c0-0.4,0.1-0.8,0.2-1.1c0.2-0.3,0.4-0.6,0.6-0.8c0.3-0.2,0.6-0.4,0.9-0.5
						c0.4-0.1,0.7-0.1,1.1-0.1c0.4,0,0.8,0.1,1.2,0.3c0.4,0.2,0.7,0.4,0.9,0.6c-0.3,0.4-0.7,0.8-1,1.1c-0.1-0.1-0.2-0.3-0.4-0.3
						c-0.2-0.1-0.3-0.1-0.6-0.2c-0.1,0-0.3,0-0.4,0c-0.1,0-0.3,0.1-0.4,0.2c-0.1,0.1-0.2,0.2-0.3,0.4c-0.1,0.1-0.1,0.3-0.1,0.5
						c0,0.4,0.1,0.7,0.3,0.9c0.2,0.2,0.5,0.4,0.9,0.4c0.1,0,0.2,0,0.2,0c0.1,0,0.1,0,0.2,0c0-0.1,0-0.3,0-0.4
						c-0.3,0-0.6-0.1-0.9-0.1c0-0.5,0-0.9,0-1.4c0.8,0.1,1.6,0.2,2.4,0.2c0,1,0,1.9,0,2.9c-0.1,0.1-0.3,0.1-0.4,0.2
						c-0.2,0-0.3,0.1-0.5,0.1c-0.2,0-0.4,0-0.6,0.1C104.3,123.3,104.1,123.3,103.9,123.3z"/>
					<path id="XMLID_273_" fill="#6A64AB" d="M109.3,123.9c-0.4,0-0.8-0.1-1.1-0.3c-0.3-0.1-0.6-0.3-0.8-0.6
						c-0.2-0.2-0.4-0.5-0.5-0.8c-0.1-0.3-0.1-0.6-0.1-0.9c0-1.1,0-2.1,0-3.2c0.6,0.1,1.2,0.1,1.8,0.2c0,1,0,2,0,3
						c0,0.3,0.1,0.5,0.2,0.6c0.1,0.2,0.3,0.2,0.5,0.3c0.2,0,0.4,0,0.5-0.2c0.1-0.1,0.2-0.3,0.2-0.6c0-1,0-2,0-3
						c0.6,0.1,1.2,0.1,1.8,0.2c0,1.1,0,2.1,0,3.2c0,0.3-0.1,0.6-0.2,0.9c-0.1,0.3-0.3,0.5-0.5,0.6c-0.2,0.2-0.5,0.3-0.8,0.4
						C110.1,123.9,109.7,123.9,109.3,123.9z"/>
					<path id="XMLID_271_" fill="#6A64AB" d="M112.7,118.9c1.2,0.2,2.4,0.3,3.6,0.5c0,0.5,0,1,0,1.5c-0.7-0.1-1.3-0.2-2-0.3
						c0,0.2,0,0.3,0,0.5c0.6,0.1,1.2,0.2,1.8,0.3c0,0.5,0,0.9,0,1.4c-0.6-0.1-1.2-0.2-1.8-0.3c0,0.2,0,0.3,0,0.5
						c0.7,0.1,1.4,0.2,2.1,0.3c0,0.5,0,1,0,1.5c-1.3-0.2-2.5-0.4-3.8-0.5C112.7,122.4,112.7,120.7,112.7,118.9z"/>
				</g>
				<g id="XMLID_253_">
					<g id="XMLID_254_">
						<path id="XMLID_268_" fill="#6A64AB" d="M33,154.7c-1.6,0.4-3.1,0.5-4.4,0.4c-1.4-0.1-2.5-0.5-3.5-1.2c-1-0.6-1.8-1.5-2.3-2.7
							c-0.6-1.2-0.9-2.6-0.9-4.2c0-1.6,0.3-3.2,0.9-4.7c0.6-1.5,1.3-2.9,2.3-4.1c1-1.2,2.1-2.3,3.5-3.2c1.3-0.9,2.8-1.5,4.3-1.9
							c1.6-0.4,3.1-0.5,4.5-0.3c1.4,0.2,2.6,0.7,3.5,1.4c-1.3,1.9-2.7,3.8-4,5.7c-0.4-0.4-0.9-0.7-1.5-0.9c-0.6-0.2-1.3-0.1-2.1,0.1
							c-0.6,0.1-1.1,0.4-1.6,0.7c-0.5,0.4-1,0.8-1.4,1.3c-0.4,0.5-0.7,1.1-1,1.8c-0.2,0.6-0.4,1.3-0.4,2c0,1.4,0.4,2.5,1.1,3.2
							c0.7,0.7,1.9,0.8,3.5,0.4c0.3-0.1,0.6-0.2,0.9-0.3c0.3-0.1,0.5-0.3,0.7-0.4c0-0.5,0-1,0-1.6c-1.1,0.3-2.2,0.5-3.3,0.8
							c0-1.8,0-3.6,0-5.4c3.1-0.8,6.2-1.5,9.3-2.2c0,3.7,0,7.5,0,11.2c-0.5,0.4-1,0.8-1.7,1.1c-0.6,0.4-1.3,0.7-2,1.1
							c-0.7,0.3-1.4,0.6-2.2,0.9C34.6,154.2,33.8,154.5,33,154.7z"/>
						<path id="XMLID_265_" fill="#6A64AB" d="M50.3,130c2.4-0.4,4.9-0.8,7.4-1.1c2.7,6.5,5.4,13.1,8.1,19.7c-2.5,0.2-5,0.5-7.6,0.8
							c-0.4-1-0.7-1.9-1.1-2.9c-2.2,0.3-4.4,0.6-6.5,1c-0.3,1.1-0.7,2.1-1,3.2c-2.4,0.4-4.9,0.9-7.3,1.3
							C44.9,144.7,47.6,137.3,50.3,130z M53.9,136.7c-0.6,1.8-1.1,3.5-1.7,5.3c1.1-0.2,2.2-0.3,3.3-0.5
							C55,139.9,54.5,138.3,53.9,136.7z"/>
						<path id="XMLID_262_" fill="#6A64AB" d="M67.2,128c3-0.2,6-0.4,8.9-0.5c1,0,2,0,3,0.2c1,0.2,1.9,0.5,2.7,1
							c0.8,0.5,1.4,1.2,1.9,2c0.5,0.9,0.7,1.9,0.7,3.2c0,1.3-0.3,2.4-0.9,3.3c-0.6,1-1.5,1.7-2.7,2.2c1.8,2.7,3.5,5.5,5.3,8.3
							c-2.7,0-5.3,0-8,0.1c-1.3-2.4-2.7-4.8-4-7.2c-0.1,0-0.1,0-0.2,0c0,2.4,0,4.9,0,7.3c-2.3,0.1-4.5,0.3-6.8,0.4
							C67.2,141.7,67.2,134.8,67.2,128z M73.9,136.2c0.5,0,0.9,0,1.4-0.1c0.2,0,0.5,0,0.8-0.1c0.3-0.1,0.5-0.1,0.8-0.3
							c0.2-0.1,0.4-0.3,0.6-0.5c0.2-0.2,0.2-0.5,0.2-0.9c0-0.4-0.1-0.7-0.2-0.9c-0.1-0.2-0.3-0.4-0.5-0.5c-0.2-0.1-0.4-0.2-0.7-0.2
							c-0.3,0-0.5,0-0.7,0c-0.6,0-1.1,0-1.7,0.1C73.9,134,73.9,135.1,73.9,136.2z"/>
						<path id="XMLID_259_" fill="#6A64AB" d="M93.9,127.5c2.5,0.1,4.9,0.3,7.4,0.5c2.7,7.1,5.4,14.2,8.1,21.3
							c-2.5-0.3-5-0.5-7.6-0.7c-0.4-1-0.7-2.1-1.1-3.1c-2.2-0.2-4.4-0.3-6.6-0.4c-0.3,1-0.7,2-1,3c-2.5-0.1-4.9-0.2-7.4-0.2
							C88.5,141,91.2,134.2,93.9,127.5z M97.5,134.8c-0.6,1.7-1.1,3.3-1.7,5c1.1,0.1,2.2,0.1,3.4,0.2
							C98.6,138.3,98.1,136.6,97.5,134.8z"/>
						<path id="XMLID_257_" fill="#6A64AB" d="M121.3,151.5c-1.6-0.3-3.1-0.8-4.5-1.5c-1.4-0.7-2.6-1.6-3.6-2.7
							c-1-1.1-1.8-2.3-2.4-3.7c-0.6-1.4-0.9-2.9-0.9-4.6c0-1.6,0.3-3.1,0.9-4.4c0.6-1.3,1.4-2.3,2.4-3.1c1-0.8,2.2-1.4,3.6-1.7
							c1.4-0.3,2.8-0.3,4.4-0.1c1.6,0.3,3.1,0.8,4.6,1.6c1.4,0.8,2.6,1.8,3.5,2.9c-1.3,1.3-2.7,2.7-4,4c-0.4-0.6-0.9-1.1-1.5-1.5
							c-0.6-0.4-1.3-0.7-2.1-0.8c-0.6-0.1-1.1-0.1-1.6,0.1c-0.5,0.1-1,0.4-1.4,0.7c-0.4,0.4-0.7,0.8-1,1.3c-0.3,0.5-0.4,1.2-0.4,1.9
							c0,1.4,0.4,2.7,1.1,3.7c0.7,1,1.9,1.7,3.6,2c0.3,0.1,0.6,0.1,0.9,0.1c0.3,0,0.6,0,0.7-0.1c0-0.5,0-1,0-1.6
							c-1.1-0.2-2.2-0.4-3.3-0.6c0-1.8,0-3.6,0-5.4c3.1,0.5,6.3,1.1,9.4,1.8c0,3.7,0,7.5,0,11.2c-0.5,0.2-1,0.3-1.7,0.4
							c-0.6,0.1-1.3,0.2-2,0.2c-0.7,0-1.4,0-2.2,0C122.9,151.7,122.1,151.6,121.3,151.5z"/>
						<path id="XMLID_255_" fill="#6A64AB" d="M132.9,132.8c4.7,1.1,9.3,2.3,13.9,3.7c0,1.9,0,3.8,0,5.7c-2.5-0.8-5-1.5-7.5-2.1
							c0,0.6,0,1.2,0,1.8c2.4,0.6,4.7,1.3,7,2c0,1.8,0,3.6,0,5.4c-2.3-0.7-4.7-1.4-7-2c0,0.6,0,1.3,0,1.9c2.7,0.7,5.3,1.5,8,2.3
							c0,1.9,0,3.8,0,5.7c-4.8-1.5-9.6-2.8-14.4-3.9C132.9,146.5,132.9,139.7,132.9,132.8z"/>
					</g>
				</g>
			</g>
		</g>
	</g>
</g>
</svg>
